<svg version="1.0" xmlns="http://www.w3.org/2000/svg" xmlns:xlink="http://www.w3.org/1999/xlink"
     width="100%" height="100%" viewBox="0 0 294.000000 90.000000" preserveAspectRatio="xMidYMid meet"
     color-interpolation-filters="sRGB" class="el-tooltip" style="margin: auto;">
    <g fill="#913234" class="icon-text-wrapper icon-svg-group iconsvg"
       transform="translate(0,0)">
        <g class="iconsvg-imagesvg" transform="translate(0,0)">
            <rect fill="#913234" fill-opacity="0" stroke-width="2" x="0" y="0" width="60" height="61.76005273566258"
                  class="image-rect"></rect>
            <svg x="0" y="0" width="60" height="61.76005273566258" class="image-svg-svg">
                <svg xmlns="http://www.w3.org/2000/svg" viewBox="0 0 151.7 156.15">
                    <g>
                        <g>
                            <path fill="#FF0000"
                                  d="M123.1 147.9V81.83l28.6-16.51V48.8L80.19 90.09v16.52l28.61-16.52v66.06l14.3-8.25z"></path>
                            <path fill="#3D85C6"
                                  d="M118.76 57.8L61.55 24.77l28.6-16.51L75.85 0 4.33 41.29l14.31 8.26 28.6-16.52 57.21 33.03 14.31-8.26z"></path>
                            <path fill="#F1C232"
                                  d="M42.91 156.15V90.09l28.6 16.52V90.09L0 48.8v16.52l28.61 16.51v66.07l14.3 8.25z"></path>
                        </g>
                    </g>
                </svg>
            </svg> <!---->
        </g>
        <g transform="translate(67,15.315025329589844)">
            <g class="tp-name iconsvg-namesvg">
                <g>
                    <path d="M13.68-2.76C12.67-2.01 12.00-1.64 11.03-1.64C9.54-1.64 8.61-2.50 8.61-4.59L8.61-18.38L13.57-18.38L13.57-19.94L8.65-19.94L8.76-25.83L5.55-25.83L3.95-19.98L0.48-19.61L0.48-18.38L3.69-18.38L3.69-8.61C3.69-7.12 3.65-6.08 3.65-4.88C3.65-1.08 5.55 0.60 8.98 0.60C11.52 0.60 13.27-0.37 14.35-2.05ZM36.27-1.45C36.23-3.58 36.20-6.64 36.20-8.76L36.20-13.23C36.20-18.41 34.03-20.54 30.49-20.54C27.77-20.54 25.57-19.27 23.34-16.70L23.34-24.27L23.48-30.19L22.93-30.53L15.54-28.93L15.54-27.88L18.56-27.66L18.56-8.76C18.56-6.71 18.53-3.62 18.49-1.49L15.77-1.16L15.77 0L25.91 0L25.91-1.16L23.52-1.45C23.45-3.58 23.41-6.71 23.41-8.76L23.41-15.47C25.24-17.15 26.84-17.89 28.33-17.89C30.27-17.89 31.35-16.77 31.35-13.53L31.35-8.76C31.35-6.64 31.31-3.58 31.28-1.49L28.59-1.16L28.59 0L38.81 0L38.81-1.16ZM46.45-24.68C48.05-24.68 49.39-25.83 49.39-27.44C49.39-29.11 48.05-30.23 46.45-30.23C44.84-30.23 43.50-29.11 43.50-27.44C43.50-25.83 44.84-24.68 46.45-24.68ZM49.09-1.45C49.06-3.58 49.02-6.71 49.02-8.76L49.02-14.35L49.09-20.17L48.57-20.50L41.00-18.38L41.00-17.37L44.02-17.07C44.10-15.21 44.14-13.79 44.14-11.41L44.14-8.76C44.14-6.71 44.10-3.62 44.06-1.49L41.34-1.16L41.34 0L51.59 0L51.59-1.16ZM74.67-1.45C74.63-3.58 74.59-6.64 74.59-8.76L74.59-13.31C74.59-18.30 72.39-20.54 68.89-20.54C66.47-20.54 64.15-19.50 61.81-16.77L61.54-20.17L61.02-20.50L53.87-18.23L53.87-17.30L56.81-17.00C56.92-15.21 56.96-13.87 56.96-11.44L56.96-8.76C56.96-6.71 56.92-3.62 56.88-1.49L54.16-1.16L54.16 0L64.38 0L64.38-1.16L61.95-1.45C61.92-3.58 61.88-6.71 61.88-8.76L61.88-15.47C63.71-17.15 65.38-17.89 66.76-17.89C68.78-17.89 69.71-16.77 69.71-13.53L69.71-8.76C69.71-6.64 69.67-3.58 69.60-1.49L66.99-1.16L66.99 0L77.20 0L77.20-1.16ZM99.60-1.45L92.75-13.94L97.37-18.34L101.10-18.75L101.10-19.94L91.48-19.94L91.48-18.75L95.06-18.23L87.23-10.51L87.23-24.27L87.38-30.19L86.86-30.53L79.36-28.93L79.36-27.88L82.38-27.66L82.38-8.76C82.38-6.67 82.35-3.65 82.31-1.49L79.51-1.16L79.51 0L89.99 0L89.99-1.16L87.34-1.45C87.27-3.58 87.23-6.56 87.23-8.76L89.35-10.77L95.06 0L102.14 0L102.14-1.16ZM110.82-10.33L114.78-23.11L118.88-10.33ZM127.00-1.64L118.09-27.77L114.85-27.77L106.35-1.75L103.15-1.30L103.15 0L111.87 0L111.87-1.30L108.22-1.75L110.41-8.95L119.32-8.95L121.67-1.71L118.06-1.30L118.06 0L130.10 0L130.10-1.30ZM145.49-3.28C144.34-2.20 143.22-1.79 141.88-1.79C138.78-1.79 136.51-4.06 136.51-9.99C136.51-16.10 139.01-18.19 141.95-18.19C143.11-18.19 144.26-17.82 145.49-16.77ZM150.41-1.38L150.41-24.30L150.53-30.19L150.00-30.53L142.47-28.93L142.47-27.88L145.68-27.62L145.68-17.93C144.15-19.76 142.36-20.54 140.31-20.54C135.20-20.54 131.29-16.51 131.29-9.77C131.29-3.35 134.94 0.60 139.83 0.60C142.21 0.60 144.11-0.37 145.60-2.09L145.87 0.41L153.21 0L153.21-1.16ZM188.10-1.45C188.06-3.58 188.03-6.64 188.03-8.76L188.03-13.23C188.03-18.27 186.12-20.54 182.29-20.54C179.82-20.54 177.59-19.50 175.20-16.66C174.46-19.31 172.71-20.54 170.02-20.54C167.49-20.54 165.29-19.31 163.12-16.81L162.86-20.17L162.34-20.50L155.18-18.23L155.18-17.30L158.13-17.00C158.28-15.25 158.28-13.90 158.28-11.44L158.28-8.76C158.28-6.71 158.24-3.62 158.20-1.49L155.48-1.16L155.48 0L165.70 0L165.70-1.16L163.27-1.45C163.24-3.58 163.20-6.71 163.20-8.76L163.20-15.36C164.80-16.92 166.41-17.86 167.90-17.86C169.87-17.86 170.80-16.66 170.80-13.27L170.80-8.76C170.80-6.64 170.77-3.62 170.73-1.49L168.05-1.16L168.05 0L178.15 0L178.15-1.16L175.72-1.45C175.65-3.58 175.61-6.64 175.61-8.76L175.61-13.31C175.61-14.05 175.58-14.76 175.46-15.40C177.18-17.07 178.74-17.86 180.31-17.86C182.25-17.86 183.22-16.81 183.22-13.31L183.22-8.76C183.22-6.64 183.18-3.62 183.14-1.49L180.57-1.16L180.57 0L190.64 0L190.64-1.16ZM198.24-24.68C199.84-24.68 201.18-25.83 201.18-27.44C201.18-29.11 199.84-30.23 198.24-30.23C196.64-30.23 195.29-29.11 195.29-27.44C195.29-25.83 196.64-24.68 198.24-24.68ZM200.89-1.45C200.85-3.58 200.81-6.71 200.81-8.76L200.81-14.35L200.89-20.17L200.36-20.50L192.80-18.38L192.80-17.37L195.82-17.07C195.89-15.21 195.93-13.79 195.93-11.41L195.93-8.76C195.93-6.71 195.89-3.62 195.85-1.49L193.13-1.16L193.13 0L203.38 0L203.38-1.16ZM226.46-1.45C226.42-3.58 226.38-6.64 226.38-8.76L226.38-13.31C226.38-18.30 224.18-20.54 220.68-20.54C218.26-20.54 215.95-19.50 213.60-16.77L213.34-20.17L212.82-20.50L205.66-18.23L205.66-17.30L208.60-17.00C208.71-15.21 208.75-13.87 208.75-11.44L208.75-8.76C208.75-6.71 208.71-3.62 208.68-1.49L205.96-1.16L205.96 0L216.17 0L216.17-1.16L213.75-1.45C213.71-3.58 213.67-6.71 213.67-8.76L213.67-15.47C215.50-17.15 217.18-17.89 218.56-17.89C220.57-17.89 221.50-16.77 221.50-13.53L221.50-8.76C221.50-6.64 221.46-3.58 221.39-1.49L218.78-1.16L218.78 0L228.99 0L228.99-1.16Z"
                          transform="translate(-0.484602917341972, 30.529983792544233)"></path>
                </g> <!----> <!----> <!----> <!----> <!----> <!---->
                <g fill="#913234" transform="translate(231.510009765625,0)"></g>
            </g> <!---->
        </g>
    </g>
</svg>