<svg version="1.0" xmlns="http://www.w3.org/2000/svg" xmlns:xlink="http://www.w3.org/1999/xlink" width="100%"
     height="100%" viewBox="0 0 41.000000 40.000000" preserveAspectRatio="xMidYMid meet"
     color-interpolation-filters="sRGB" class="el-tooltip" style="margin: auto;">
    <g fill="#ffa000" class="icon-svg-group iconsvg">
        <g class="iconsvg-imagesvg" transform="translate(0,0)">
            <rect fill="#ffa000" fill-opacity="0" stroke-width="2" x="0" y="0" width="40" height="40"></rect>
            <svg x="0" y="0" width="41" height="40" class="imagesvg-svg">
                <svg xmlns="http://www.w3.org/2000/svg" viewBox="0 0 72.04 72.04">
                    <defs>
                        <linearGradient id="a414f42d2-9789-417a-8fa2-199778bb56de" x1="28.02" y1="37.07" x2="5.25"
                                        y2="35.59" gradientUnits="userSpaceOnUse">
                            <stop offset="0" stop-color="#ffa000"></stop>
                            <stop offset="1" stop-color="#ffc107"></stop>
                        </linearGradient>
                        <linearGradient id="b327279c6-b376-4739-8848-820d3148debf" x1="47.83" y1="11.88" x2="50.59"
                                        y2="6.38" gradientUnits="userSpaceOnUse">
                            <stop offset="0" stop-color="#455a64"></stop>
                            <stop offset="1" stop-color="#607d8b"></stop>
                        </linearGradient>
                        <linearGradient id="ccc1d33a8-0768-4832-9a78-ee0ef4852e52" x1="41.06" y1="46.56" x2="46.89"
                                        y2="53.55" gradientUnits="userSpaceOnUse">
                            <stop offset="0" stop-color="#757575"></stop>
                            <stop offset="1" stop-color="#9e9e9e"></stop>
                        </linearGradient>
                    </defs>
                    <g>
                        <g>
                            <path d="M9.43 18l8.86-18H5.58A5.58 5.58 0 0 0 0 5.58v60.88A5.58 5.58 0 0 0 5.58 72H17.5l-7.71-3.75 19.79-40.31z"
                                  fill="url(#a414f42d2-9789-417a-8fa2-199778bb56de)"></path>
                            <path d="M66.46 0H23.62L72 23.78V5.58A5.58 5.58 0 0 0 66.46 0z"
                                  fill="url(#b327279c6-b376-4739-8848-820d3148debf)"></path>
                            <path d="M32.94 72h33.52A5.58 5.58 0 0 0 72 66.46V48.52L49.74 37.84z"
                                  fill="url(#ccc1d33a8-0768-4832-9a78-ee0ef4852e52)"></path>
                        </g>
                    </g>
                </svg>
            </svg> <!---->
        </g>
    </g>
</svg>