<svg version="1.0" xmlns="http://www.w3.org/2000/svg" xmlns:xlink="http://www.w3.org/1999/xlink" width="100%"
     height="100%" viewBox="0 0 207.000000 40.000000" preserveAspectRatio="xMidYMid meet"
     color-interpolation-filters="sRGB" class="el-tooltip" style="margin: auto;">
    <g fill="#ffa000" class="icon-svg-group iconsvg">
        <g class="iconsvg-imagesvg" transform="translate(0,0)">
            <rect fill="#ffa000" fill-opacity="0" stroke-width="2" x="0" y="0" width="40" height="40"></rect>
            <svg x="0" y="0" width="41" height="40" class="imagesvg-svg">
                <svg xmlns="http://www.w3.org/2000/svg" viewBox="0 0 72.04 72.04">
                    <defs>
                        <linearGradient id="a414f42d2-9789-417a-8fa2-199778bb56de" x1="28.02" y1="37.07" x2="5.25"
                                        y2="35.59" gradientUnits="userSpaceOnUse">
                            <stop offset="0" stop-color="#ffa000"></stop>
                            <stop offset="1" stop-color="#ffc107"></stop>
                        </linearGradient>
                        <linearGradient id="b327279c6-b376-4739-8848-820d3148debf" x1="47.83" y1="11.88" x2="50.59"
                                        y2="6.38" gradientUnits="userSpaceOnUse">
                            <stop offset="0" stop-color="#455a64"></stop>
                            <stop offset="1" stop-color="#607d8b"></stop>
                        </linearGradient>
                        <linearGradient id="ccc1d33a8-0768-4832-9a78-ee0ef4852e52" x1="41.06" y1="46.56" x2="46.89"
                                        y2="53.55" gradientUnits="userSpaceOnUse">
                            <stop offset="0" stop-color="#757575"></stop>
                            <stop offset="1" stop-color="#9e9e9e"></stop>
                        </linearGradient>
                    </defs>
                    <g>
                        <g>
                            <path d="M9.43 18l8.86-18H5.58A5.58 5.58 0 0 0 0 5.58v60.88A5.58 5.58 0 0 0 5.58 72H17.5l-7.71-3.75 19.79-40.31z"
                                  fill="url(#a414f42d2-9789-417a-8fa2-199778bb56de)"></path>
                            <path d="M66.46 0H23.62L72 23.78V5.58A5.58 5.58 0 0 0 66.46 0z"
                                  fill="url(#b327279c6-b376-4739-8848-820d3148debf)"></path>
                            <path d="M32.94 72h33.52A5.58 5.58 0 0 0 72 66.46V48.52L49.74 37.84z"
                                  fill="url(#ccc1d33a8-0768-4832-9a78-ee0ef4852e52)"></path>
                        </g>
                    </g>
                </svg>
            </svg> <!---->
        </g>
        <g transform="translate(48,2.1878128051757812)">
            <g class="tp-name iconsvg-namesvg" transform="translate(0,0)">
                <g>
                    <path transform="translate(-0.4,16.675)"
                          d="M0.40-12.18L2.53-12.18L2.53-16.68L5.88-16.68L5.88-12.18L8.97-12.18L8.97-9.58L5.88-9.58L5.88-5.15L5.88-5.15Q5.88-3.60 6.15-3.20L6.15-3.20L6.15-3.20Q6.58-2.60 7.65-2.60L7.65-2.60L8.97-2.60L8.97 0L6.55 0L6.55 0Q4.38 0 3.45-1.05L3.45-1.05L3.45-1.05Q2.53-2.10 2.53-4.58L2.53-4.58L2.53-9.58L0.40-9.58L0.40-12.18ZM11.25-16.68L14.60-16.68L14.60-12.18L18.02-12.18L18.02-12.18Q19.55-12.18 20.41-11.94L20.41-11.94L20.41-11.94Q21.27-11.70 21.88-11.10L21.88-11.10L21.88-11.10Q23.02-10.05 23.02-7.58L23.02-7.58L23.02 0L19.68 0L19.68-6.93L19.68-6.93Q19.68-7.90 19.59-8.31L19.59-8.31L19.59-8.31Q19.50-8.72 19.23-9.03L19.23-9.03L19.23-9.03Q18.73-9.55 17.32-9.58L17.32-9.58L14.60-9.58L14.60 0L11.25 0L11.25-16.68ZM26.15 0L26.15-12.18L29.50-12.18L29.50 0L26.15 0ZM29.50-13.43L26.15-13.43L26.15-16.68L29.50-16.68L29.50-13.43ZM32.80 0L32.80-12.18L39.25-12.18L39.25-12.18Q40.70-12.18 41.46-11.96L41.46-11.96L41.46-11.96Q42.22-11.75 42.85-11.20L42.85-11.20L42.85-11.20Q44.13-10.03 44.13-7.50L44.13-7.50L44.13 0L40.77 0L40.77-7.88L40.77-7.88Q40.77-8.78 40.38-9.18L40.38-9.18L40.38-9.18Q39.97-9.58 39.05-9.58L39.05-9.58L36.15-9.58L36.15 0L32.80 0ZM47.25-16.68L50.60-16.68L50.60-7.35L55.08-12.18L58.83-12.18L54.08-7.35L54.98-7.35L54.98-7.35Q56.73-7.35 57.40-6.33L57.40-6.33L57.40-6.33Q58.08-5.30 58.08-2.70L58.08-2.70L58.08 0L54.73 0L54.73-2.85L54.73-2.85Q54.73-4 54.35-4.39L54.35-4.39L54.35-4.39Q53.98-4.78 52.88-4.78L52.88-4.78L50.60-4.78L50.60 0L47.25 0L47.25-16.68ZM63.73-7.40L70.78-7.40L70.78-4.80L63.73-4.80L63.73-4.80Q63.83-3.60 64.50-3.10L64.50-3.10L64.50-3.10Q65.17-2.60 66.70-2.60L66.70-2.60L70.78-2.60L70.78 0L66.33 0L66.33 0Q64.88 0 63.96-0.26L63.96-0.26L63.96-0.26Q63.05-0.53 62.25-1.13L62.25-1.13L62.25-1.13Q60.03-2.85 60.03-6.25L60.03-6.25L60.03-6.25Q60.03-8.45 61.20-10.10L61.20-10.10L61.20-10.10Q62-11.23 63.13-11.70L63.13-11.70L63.13-11.70Q64.25-12.18 66.08-12.18L66.08-12.18L70.78-12.18L70.78-9.58L66.33-9.58L66.33-9.58Q64.95-9.58 64.40-9.11L64.40-9.11L64.40-9.11Q63.85-8.65 63.73-7.40L63.73-7.40ZM73.50 0L73.50-12.18L78.45-12.18L78.45-12.18Q79.97-12.18 80.81-11.96L80.81-11.96L80.81-11.96Q81.65-11.75 82.20-11.25L82.20-11.25L82.20-11.25Q82.75-10.75 82.97-10L82.97-10L82.97-10Q83.20-9.25 83.20-7.85L83.20-7.85L83.20-6.68L79.97-6.68L79.97-7.33L79.97-7.33Q79.97-8.63 79.53-9.10L79.53-9.10L79.53-9.10Q79.08-9.58 77.80-9.58L77.80-9.58L76.85-9.58L76.85 0L73.50 0ZM83.58-7.95L89.40-7.95L89.40-4.95L83.58-4.95L83.58-7.95ZM95.33-7.40L99.43-7.40L99.43-7.40Q99.43-8.68 98.91-9.13L98.91-9.13L98.91-9.13Q98.40-9.58 96.88-9.58L96.88-9.58L91.23-9.58L91.23-12.18L96.88-12.18L96.88-12.18Q98.40-12.18 98.98-12.11L98.98-12.11L98.98-12.11Q99.55-12.05 100.15-11.88L100.15-11.88L100.15-11.88Q102.93-10.83 102.78-6.85L102.78-6.85L102.78 0L95.73 0L95.73 0Q93.83 0 93.10-0.11L93.10-0.11L93.10-0.11Q92.38-0.23 91.83-0.58L91.83-0.58L91.83-0.58Q90.35-1.58 90.35-3.60L90.35-3.60L90.35-3.60Q90.35-4.83 90.94-5.79L90.94-5.79L90.94-5.79Q91.53-6.75 92.50-7.10L92.50-7.10L92.50-7.10Q93.35-7.40 95.33-7.40L95.33-7.40ZM99.43-2.60L99.43-4.80L95.58-4.80L95-4.80L95-4.80Q94.43-4.80 94.09-4.50L94.09-4.50L94.09-4.50Q93.75-4.20 93.75-3.68L93.75-3.68L93.75-3.68Q93.75-3.10 94.16-2.85L94.16-2.85L94.16-2.85Q94.58-2.60 95.58-2.60L95.58-2.60L99.43-2.60ZM110.93-12.18L114.08-12.18L114.08-16.68L117.40-16.68L117.40 0L111.65 0L111.65 0Q109.90 0 109-0.28L109-0.28L109-0.28Q106.88-0.95 105.83-2.93L105.83-2.93L105.83-2.93Q105.10-4.25 105.10-6.18L105.10-6.18L105.10-6.18Q105.10-9.30 107.20-11.03L107.20-11.03L107.20-11.03Q108.58-12.18 110.93-12.18L110.93-12.18ZM111.65-2.60L114.08-2.60L114.08-9.58L111.65-9.58L111.65-9.58Q110.05-9.58 109.23-8.50L109.23-8.50L109.23-8.50Q108.50-7.60 108.50-6.18L108.50-6.18L108.50-6.18Q108.50-4.10 109.70-3.20L109.70-3.20L109.70-3.20Q110.53-2.60 111.65-2.60L111.65-2.60ZM120.68 0L120.68-12.18L132.98-12.18L132.98-12.18Q134.65-12.18 135.53-11.93L135.53-11.93L135.53-11.93Q136.40-11.68 137-11.05L137-11.05L137-11.05Q138.10-9.85 138.10-7.75L138.10-7.75L138.10 0L134.75 0L134.75-7.23L134.75-7.23Q134.75-8.10 134.68-8.45L134.68-8.45L134.68-8.45Q134.60-8.80 134.33-9.08L134.33-9.08L134.33-9.08Q133.80-9.58 132.75-9.58L132.75-9.58L130.98-9.58L130.98 0L127.63 0L127.63-9.58L124.03-9.58L124.03 0L120.68 0ZM141.23 0L141.23-12.18L144.58-12.18L144.58 0L141.23 0ZM144.58-13.43L141.23-13.43L141.23-16.68L144.58-16.68L144.58-13.43ZM147.88 0L147.88-12.18L154.33-12.18L154.33-12.18Q155.78-12.18 156.54-11.96L156.54-11.96L156.54-11.96Q157.30-11.75 157.93-11.20L157.93-11.20L157.93-11.20Q159.20-10.03 159.20-7.50L159.20-7.50L159.20 0L155.85 0L155.85-7.88L155.85-7.88Q155.85-8.78 155.45-9.18L155.45-9.18L155.45-9.18Q155.05-9.58 154.13-9.58L154.13-9.58L151.23-9.58L151.23 0L147.88 0Z"></path>
                </g> <!----> <!----> <!----> <!----> <!----> <!----> <!---->
            </g>
            <g class="tp-slogan iconsvg-slogansvg" fill="#455a64"
               transform="translate(50.44000244140625,23.68000030517578)">
                <g transform="translate(0,6.09499979019165)">
                    <path transform="translate(-0.492,3.384)" d="M0.49-3.38L0.49-2.63L3.25-2.63L3.25-3.38Z"></path>
                </g>
                <g transform="translate(55.16000151634216,6.09499979019165)">
                    <path transform="translate(-0.492,3.384)" d="M0.49-3.38L0.49-2.63L3.25-2.63L3.25-3.38Z"></path>
                </g> <!----> <!---->
                <g transform="translate(5.759999990463257,0)">
                    <path transform="translate(-0.796875,10.359375)"
                          d="M6.42-8.58L7.13-9.42L8.81-9.42L9.38-8.86L9.38-8.86Q8.86-8.25 7.97-7.88L7.97-7.88L7.97-7.88Q6.66-5.44 6.14-5.20L6.14-5.20L6.28-4.78L6.28-4.78Q5.86-4.78 5.86-3.80L5.86-3.80L5.58-3.80L5.58-3.52L8.11-4.92L8.25-4.78L9.52-5.06L9.52-5.06Q10.27-5.06 10.78-4.22L10.78-4.22L10.78-3.52L10.78-3.52Q10.78-3.23 9.66-3.23L9.66-3.23L8.11-1.83L8.11-1.55L8.11-1.55Q9.23-1.55 9.23-1.13L9.23-1.13L9.09 0.42L9.38 1.27L8.95 1.69L8.11 1.69L8.11 1.69Q7.55 1.36 7.55 0.98L7.55 0.98L7.97-0.84L7.55-0.84L7.41-0.70L7.41-0.70Q7.08-0.66 6.56 1.69L6.56 1.69L5.86 1.69L5.86 1.69Q5.30 1.45 5.30 0.70L5.30 0.70L5.30 0.70Q6.19-1.03 7.97-2.81L7.97-2.81L8.81-3.66L8.81-3.80L8.67-3.94L8.67-4.08L8.67-4.08Q7.22-3.89 5.86-2.81L5.86-2.81L5.86-2.81Q5.02-2.81 3.89-0.98L3.89-0.98L3.89-0.98Q2.95-0.38 1.92 0.98L1.92 0.98L1.78 0.98L1.78 0.98Q0.80 0.61 0.80 0.28L0.80 0.28L0.80 0.28Q0.80-0.14 2.06-0.98L2.06-0.98L2.06-0.98Q2.06-1.27 4.03-3.09L4.03-3.09L4.03-3.09Q4.03-3.52 5.02-5.06L5.02-5.06L5.02-5.06Q5.02-5.44 6.70-7.59L6.70-7.59L6.56-7.59L3.89-7.03L3.61-7.03L3.19-7.45L3.19-7.45Q3.38-7.83 6.42-8.58L6.42-8.58ZM17.25-9.42L17.25-9.42L17.39-9.28L17.39-9.14L14.72-3.52L14.72-3.23L14.72-3.23Q17.58-5.20 19.08-7.31L19.08-7.31L19.36-7.31L19.36-7.17L19.36-7.17Q19.36-5.53 15-2.67L15-2.67L15-2.67Q14.30-1.69 13.59-1.69L13.59-1.69L13.59-1.83L13.45-2.67L13.45-2.67Q15.38-7.13 17.25-9.42ZM20.06-8.44L20.06-8.58L20.20-8.58L20.20-8.58Q21.75-7.27 21.75-6.89L21.75-6.89L21.75-6.61L21.75-6.61Q21.14-5.77 20.48-5.77L20.48-5.77L20.48-5.91L20.48-5.91Q21.05-6.52 21.05-7.03L21.05-7.03L20.06-8.44ZM20.20-3.94L20.20-3.94L20.34-3.94L20.63-3.66L20.63-3.52L20.63-3.52Q20.63-2.95 18.52 0.28L18.52 0.28L18.80 0.28L20.34-0.14L20.63 0.28L20.63 0.28Q18.70 0.84 18.52 1.41L18.52 1.41L18.09 1.41L17.81 1.13L17.81 0.28L19.64-2.81L19.64-3.23L19.50-3.23L19.50-3.23Q16.64-1.03 15.56 2.11L15.56 2.11L15.42 2.11L15 0.98L15-0.14L15.14-0.14L15.14-0.14Q15.42-0.14 15.42 0.42L15.42 0.42L15.56 0.42L15.56 0.42Q16.83-1.83 19.36-3.52L19.36-3.52L19.36-3.52Q19.50-3.94 20.20-3.94ZM31.88-8.81L33-10.36L33.28-10.36L33.56-10.08L33.28-9.66L33.98-9.80L34.13-9.80L34.55-9.38L34.55-9.38Q34.55-9.19 33.98-8.95L33.98-8.95L33.14-9.23L32.86-9.23L32.86-9.23Q32.86-8.67 32.30-8.39L32.30-8.39L32.16-8.39L31.88-8.67L31.88-8.81ZM29.20-9.23L29.20-9.23L29.34-9.23L29.63-8.95L29.63-8.39L29.48-8.25L29.48-8.11L29.63-8.11L29.91-8.39L30.47-8.39L30.75-8.11L30.75-8.11Q30.19-7.27 29.20-7.27L29.20-7.27L29.20-7.27Q29.20-6.80 29.63-6.28L29.63-6.28L29.63-6.14L29.34-5.86L29.06-5.86L29.06-5.86Q28.78-5.86 28.78-6.70L28.78-6.70L28.64-6.70L28.64-6.70Q28.64-6.14 27.80-6.14L27.80-6.14L27.66-6.28L27.66-6.84L27.66-6.84Q28.45-8.63 29.20-9.23ZM32.86-8.53L33.28-8.53L33.84-7.97L33.84-7.83L33.14-7.27L33-7.27L32.72-7.55L32.86-7.97L32.72-8.39L32.86-8.53ZM30.47-6.56L30.61-6.56L30.61-6.56Q31.88-6.09 31.88-5.58L31.88-5.58L31.88-5.58Q31.88-5.16 31.45-5.16L31.45-5.16L31.45-5.02L31.59-5.02L33.42-5.86L33.70-5.86L33.70-5.86Q34.55-5.77 34.55-5.44L34.55-5.44L34.55-5.30L32.58-3.89L32.58-3.61L32.58-3.61Q33-3.61 33-3.33L33-3.33L32.16-2.34L32.16-2.34Q32.86-2.30 32.86-1.92L32.86-1.92L32.16-1.36L31.59-1.36L31.17-1.78L31.17-1.78Q31.17-2.25 31.59-2.77L31.59-2.77L31.45-2.77L31.45-2.77Q30.89-2.77 30.19 2.44L30.19 2.44L30.05 2.58L29.63 2.58L29.63 2.58Q29.34 2.58 29.20 1.73L29.20 1.73L29.20 1.73Q30.28-3.05 31.03-3.47L31.03-3.47L31.59-3.33L31.73-3.33L31.73-3.47L31.45-3.47L31.45-3.89L31.73-3.89L32.16-3.61L32.30-3.61L32.30-3.75L32.02-3.75L32.02-4.03L32.86-4.88L32.86-5.02L32.86-5.02Q30.98-3.75 28.08-3.05L28.08-3.05L27.94-3.19L27.94-3.33L30.75-4.59L30.47-5.02L30.61-5.16L30.61-5.30L30.33-6.42L30.47-6.56ZM26.53-3.05L26.53-3.05L26.81-2.77L26.81-1.78L26.81-1.78Q26.81-1.17 25.83 0.19L25.83 0.19L25.55-0.09L25.55-0.09Q25.55-1.88 26.53-3.05ZM32.16-0.80L32.16-0.80L32.72-0.38L32.72-0.23L31.88 1.17L31.88 1.17Q32.77 1.17 32.86 1.59L32.86 1.59L32.86 1.59Q32.86 1.88 32.16 2.02L32.16 2.02L32.16 2.02Q31.03 1.83 31.03 1.45L31.03 1.45L31.45 0.05L31.31 0.05L31.03-0.23L31.03-0.23Q31.03-0.52 32.16-0.80ZM39.75-8.53L40.73-8.81L40.88-8.81L40.88-8.81Q40.88-7.27 38.20-4.88L38.20-4.88L37.36-4.88L37.36-4.88Q36.61-4.88 36.52-5.30L36.52-5.30L36.52-5.44L39.75-8.53ZM44.53-8.11L46.22-8.81L46.22-8.81Q47.20-8.58 47.20-8.25L47.20-8.25L47.20-8.11L47.20-8.11Q47.20-6.94 44.53-4.17L44.53-4.17L44.11-4.17L44.11-1.92L44.53-2.20L45.09-2.20L45.09-2.20Q45.52-2.20 45.52-1.64L45.52-1.64L44.67 1.17L44.67 1.31L44.67 1.31Q45.66 1.31 45.66 2.16L45.66 2.16L45.66 2.16Q45.66 2.48 44.67 2.58L44.67 2.58L44.67 2.58Q44.16 2.58 43.69 1.59L43.69 1.59L43.83 0.19L43.69-0.23L43.13 0.19L42.98-0.23L43.69-1.78L43.69-3.47L43.83-4.45L43.83-4.45Q43.41-4.55 43.41-5.58L43.41-5.58L43.83-5.86L43.97-5.86L43.97-5.86Q44.20-5.86 44.39-4.88L44.39-4.88L44.53-4.88L44.53-4.88Q46.22-7.59 46.22-8.25L46.22-8.25L46.08-8.25L46.08-8.25Q42.94-6.61 41.72-3.89L41.72-3.89L41.72-3.89Q39.89 1.92 38.77 2.16L38.77 2.16L38.63 2.16L38.06 1.59L38.06 1.17L38.06 1.17Q38.48 0.61 39.19-1.64L39.19-1.64L39.19-1.64Q38.58-1.64 38.34-2.20L38.34-2.20L38.34-2.34L38.34-2.34Q38.34-3.52 40.03-4.45L40.03-4.45L40.03-4.45Q40.88-4.45 40.88-3.89L40.88-3.89L40.45-2.48L40.45-2.20L40.59-2.20L40.59-2.20Q41.67-6.14 44.53-8.11L44.53-8.11ZM39.05-2.63L39.05-2.63L39.05-2.20L39.33-2.20L39.33-2.20Q40.03-2.53 40.03-3.75L40.03-3.75L40.03-3.75Q39.52-3.42 39.05-2.63ZM39.19 0.05L39.19 0.05L39.19 0.19L39.33 0.19L39.33 0.19Q40.45-1.59 40.45-2.06L40.45-2.06L40.45-2.06Q39.94-2.06 39.19 0.05ZM44.81-1.64L43.97-0.66L44.11 0.33L44.25 0.33L44.81-1.64Z"></path>
                </g>
            </g>
        </g>
    </g>
</svg>